<?xml version="1.0" encoding="utf-8"?><svg version="1.1" id="Layer_1" xmlns="http://www.w3.org/2000/svg" xmlns:xlink="http://www.w3.org/1999/xlink" x="0px" y="0px" viewBox="-97 293.1 195.9 215.7" style="enable-background:new -97 293.1 195.9 215.7;" xml:space="preserve"><style type="text/css">.st0{fill:rgb(255,255,255);}</style><path class="st0" d="M-85.4,508.8c3,0.1,6.4-0.8,10-2.8l117.3-65.9L12.4,411C12.4,411-85.4,508.8-85.4,508.8z M90.1,388.9l-35.5-20  l-32.3,32.3L54.6,433l35.5-19.9C101.9,406.4,101.9,395.5,90.1,388.9L90.1,388.9z M-96.6,304c-0.2,1.3-0.4,2.8-0.4,4.3v185.5  c0,2.3,0.3,4.3,0.8,6.1l98.5-98.5C2.3,401.4-96.6,304-96.6,304z M41.9,361.8l-117.3-65.9c-4.4-2.5-8.6-3.2-12-2.5l99.6,98  L41.9,361.8L41.9,361.8z"/></svg>
